<svg xmlns="http://www.w3.org/2000/svg" xmlns:xlink="http://www.w3.org/1999/xlink" width="50" zoomAndPan="magnify" viewBox="0 0 37.5 37.499999" height="50" preserveAspectRatio="xMidYMid meet" version="1.0"><defs><clipPath id="5f380cda6d"><path d="M 0.925781 0.925781 L 36.082031 0.925781 L 36.082031 36.082031 L 0.925781 36.082031 Z M 0.925781 0.925781 " clip-rule="nonzero"/></clipPath><clipPath id="353f66d963"><path d="M 18.503906 0.925781 C 8.796875 0.925781 0.925781 8.796875 0.925781 18.503906 C 0.925781 28.210938 8.796875 36.082031 18.503906 36.082031 C 28.210938 36.082031 36.082031 28.210938 36.082031 18.503906 C 36.082031 8.796875 28.210938 0.925781 18.503906 0.925781 Z M 18.503906 0.925781 " clip-rule="nonzero"/></clipPath><clipPath id="ab4e799f31"><path d="M 6.699219 20 L 17 20 L 17 30.382812 L 6.699219 30.382812 Z M 6.699219 20 " clip-rule="nonzero"/></clipPath><clipPath id="f2440396b4"><path d="M 20 6.699219 L 30.382812 6.699219 L 30.382812 17 L 20 17 Z M 20 6.699219 " clip-rule="nonzero"/></clipPath><clipPath id="11904fb27a"><path d="M 6.699219 6.699219 L 30.382812 6.699219 L 30.382812 30.382812 L 6.699219 30.382812 Z M 6.699219 6.699219 " clip-rule="nonzero"/></clipPath></defs><g clip-path="url(#5f380cda6d)"><g clip-path="url(#353f66d963)"><path fill="#1a5dd7" d="M 0.925781 0.925781 L 36.082031 0.925781 L 36.082031 36.082031 L 0.925781 36.082031 Z M 0.925781 0.925781 " fill-opacity="1" fill-rule="nonzero"/></g></g><g clip-path="url(#ab4e799f31)"><path fill="#d4ff38" d="M 6.835938 20.203125 C 7.582031 25.355469 11.644531 29.417969 16.796875 30.164062 C 16.761719 27.621094 15.789062 25.085938 13.851562 23.148438 C 11.914062 21.210938 9.378906 20.238281 6.835938 20.203125 Z M 6.835938 20.203125 " fill-opacity="1" fill-rule="nonzero"/></g><g clip-path="url(#f2440396b4)"><path fill="#d4ff38" d="M 30.164062 16.796875 C 29.417969 11.644531 25.355469 7.582031 20.203125 6.835938 C 20.238281 9.378906 21.210938 11.914062 23.148438 13.851562 C 25.085938 15.789062 27.621094 16.761719 30.164062 16.796875 Z M 30.164062 16.796875 " fill-opacity="1" fill-rule="nonzero"/></g><g clip-path="url(#11904fb27a)"><path fill="#d4ff38" d="M 30.300781 18.496094 C 27.277344 18.496094 24.257812 17.34375 21.957031 15.042969 C 19.65625 12.742188 18.503906 9.722656 18.503906 6.699219 C 18.503906 6.699219 18.5 6.699219 18.5 6.699219 C 11.980469 6.699219 6.699219 11.980469 6.699219 18.5 C 6.699219 18.5 6.699219 18.503906 6.699219 18.503906 C 9.71875 18.503906 12.742188 19.65625 15.042969 21.953125 C 17.34375 24.253906 18.496094 27.277344 18.496094 30.300781 C 18.496094 30.300781 18.5 30.300781 18.5 30.300781 C 25.019531 30.300781 30.300781 25.019531 30.300781 18.5 C 30.300781 18.5 30.300781 18.496094 30.300781 18.496094 Z M 30.300781 18.496094 " fill-opacity="1" fill-rule="nonzero"/></g></svg>